<?xml version="1.0" standalone="no"?>
<!DOCTYPE svg PUBLIC "-//W3C//DTD SVG 20010904//EN"
 "http://www.w3.org/TR/2001/REC-SVG-20010904/DTD/svg10.dtd">
<svg version="1.0" xmlns="http://www.w3.org/2000/svg"
 width="3334.000000pt" height="2500.000000pt" viewBox="0 0 3334.000000 2500.000000"
 preserveAspectRatio="xMidYMid meet">

<g transform="translate(0.000000,2500.000000) scale(0.100000,-0.100000)"
fill="#000000" stroke="none">
<path d="M15963 18413 c-10 -4 -13 -502 -13 -2444 l0 -2439 700 0 700 0 0
1745 0 1745 1045 0 1045 0 0 -4192 0 -4193 700 1050 700 1050 0 3843 0 3842
-2432 -1 c-1338 0 -2439 -3 -2445 -6z"/>
<path d="M13192 15310 l-692 -1040 2 -3842 3 -3843 2438 -3 2437 -2 0 2445 0
2445 -695 0 -695 0 0 -1745 0 -1745 -1050 0 -1050 0 -2 4185 -3 4185 -693
-1040z"/>
</g>
</svg>
